<svg t="1568099921346" class="icon" viewBox="0 0 1024 1024" version="1.1" xmlns="http://www.w3.org/2000/svg" p-id="5785" width="200" height="200"><path d="M877.568 438.784v438.784H146.432V146.432h439.808L732.16 0H146.432C65.536 0 0 65.536 0 146.432v731.648C0 958.464 65.536 1024 146.432 1024h731.648c80.896 0 146.432-65.536 146.432-146.432V292.352l-146.944 146.432z m-139.776-316.928L859.648 0l162.816 162.816-121.856 121.856-162.816-162.816z m-284.672 447.488l-51.2-52.224 324.608-324.608-29.696-29.696-325.12 325.12L290.304 732.16l244.224-81.408 325.12-325.12L778.24 244.224l-325.12 325.12z" p-id="5786" fill="#ffffff"></path></svg>